Coordinates
version=1
nRows=43
nColumns=12
inDegrees=yes

Units are S.I. units (second, meters, Newtons, ...)
Angles are in degrees

endheader
time	SC_y	SC_z	SC_x	AC_y	AC_z	AC_x	GH_y	GH_z	GH_yy	EL_x	PS_y
       0.0               -21.5          12.12          47.76          47.43          2.778         -4.398          -14.9          35.13           14.3          34.24           69.4
   0.03936               -21.5          12.12          47.75          47.43          2.776         -4.395          -14.9          35.13          14.28          34.26          69.39
   0.07873              -21.51          12.13          47.74          47.43          2.774         -4.392          -14.9          35.13          14.27          34.27          69.39
    0.1181              -21.51          12.13          47.74          47.43          2.772         -4.389          -14.9          35.13          14.25          34.28          69.38
    0.1575              -21.51          12.13          47.73          47.43           2.77         -4.385          -14.9          35.13          14.23           34.3          69.38
    0.1968              -21.52          12.14          47.72          47.43          2.768         -4.381          -14.9          35.13          14.21          34.31          69.37
    0.2362              -21.52          12.14          47.71          47.43          2.765         -4.377          -14.9          35.13          14.19          34.33          69.36
    0.2755              -21.53          12.14           47.7          47.43          2.763         -4.373          -14.9          35.13          14.17          34.35          69.36
    0.3149              -21.53          12.15          47.69          47.43           2.76         -4.368          -14.9          35.12          14.14          34.37          69.35
    0.3543              -21.54          12.15          47.68          47.43          2.757         -4.363          -14.9          35.12          14.12          34.39          69.34
    0.3936              -21.54          12.16          47.66          47.43          2.754         -4.357         -14.91          35.12          14.09          34.41          69.33
     0.433              -21.55          12.16          47.65          47.43           2.75         -4.352         -14.91          35.12          14.06          34.44          69.32
    0.4724              -21.56          12.17          47.64          47.43          2.747         -4.345         -14.91          35.12          14.03          34.46          69.31
    0.5117              -21.56          12.17          47.62          47.43          2.743         -4.338         -14.91          35.11          13.99          34.49           69.3
    0.5511              -21.57          12.18           47.6          47.43          2.738         -4.331         -14.91          35.11          13.96          34.52          69.29
    0.5905              -21.58          12.19          47.59          47.43          2.734         -4.323         -14.91          35.11          13.91          34.56          69.27
    0.6298              -21.59          12.19          47.57          47.43          2.729         -4.314         -14.91           35.1          13.87          34.59          69.26
    0.6692               -21.6           12.2          47.55          47.43          2.723         -4.305         -14.91           35.1          13.82          34.63          69.24
    0.7085              -21.61          12.21          47.52          47.43          2.717         -4.295         -14.91           35.1          13.77          34.68          69.22
    0.7479              -21.62          12.22           47.5          47.43           2.71         -4.283         -14.92          35.09          13.71          34.72          69.21
    0.7873              -21.64          12.23          47.47          47.43          2.703         -4.271         -14.92          35.09          13.65          34.77          69.18
    0.8266              -21.65          12.24          47.44          47.43          2.695         -4.257         -14.92          35.08          13.58          34.83          69.16
     0.866              -21.67          12.26           47.4          47.43          2.686         -4.242         -14.92          35.08           13.5          34.89          69.14
    0.9054              -21.68          12.27          47.36          47.43          2.676         -4.225         -14.92          35.07          13.42          34.96          69.11
    0.9447               -21.7          12.29          47.32          47.43          2.665         -4.207         -14.93          35.07          13.32          35.04          69.08
    0.9841              -21.73          12.31          47.28          47.43          2.653         -4.186         -14.93          35.06          13.22          35.13          69.04
     1.023              -21.75          12.33          47.22          47.43          2.639         -4.163         -14.93          35.05           13.1          35.23           69.0
     1.063              -21.78          12.35          47.16          47.42          2.624         -4.136         -14.94          35.04          12.96          35.34          68.96
     1.102              -21.81          12.38           47.1          47.42          2.606         -4.107         -14.94          35.03          12.81          35.46          68.91
     1.142              -21.84          12.41          47.02          47.42          2.586         -4.073         -14.94          35.02          12.64           35.6          68.85
     1.181              -21.88          12.44          46.93          47.42          2.564         -4.035         -14.95          35.01          12.45          35.76          68.79
      1.22              -21.93          12.48          46.83          47.42          2.538         -3.991         -14.95          34.99          12.22          35.94          68.71
      1.26              -21.99          12.53          46.72          47.42          2.508          -3.94         -14.96          34.97          11.97          36.15          68.63
     1.299              -22.05          12.58          46.58          47.41          2.473         -3.881         -14.97          34.95          11.67           36.4          68.53
     1.338              -22.12          12.64          46.43          47.41          2.432         -3.812         -14.98          34.93          11.31          36.69          68.41
     1.378              -22.21          12.71          46.24          47.41          2.384         -3.731         -14.99           34.9           10.9          37.03          68.28
     1.417              -22.31           12.8          46.02          47.41          2.327         -3.634          -15.0          34.87          10.41          37.43          68.11
     1.456              -22.43           12.9          45.76           47.4          2.259         -3.518         -15.02          34.83          9.817          37.92          67.92
     1.496              -22.58          13.02          45.44           47.4          2.176         -3.378         -15.04          34.78          9.102           38.5          67.68
     1.535              -22.76          13.17          45.05          47.39          2.075         -3.207         -15.06          34.72           8.23          39.22           67.4
     1.575              -22.99          13.36          44.57          47.38          1.951         -2.995         -15.09          34.64          7.153           40.1          67.04
     1.614              -23.26          13.59          43.97          47.37          1.795         -2.731         -15.12          34.55          5.811           41.2           66.6
     1.653              -23.62          13.89          43.22          47.36          1.599         -2.399         -15.17          34.43          4.119          42.59          66.04
